<svg width="46" height="46" viewBox="0 0 46 46" fill="none" xmlns="http://www.w3.org/2000/svg">
<path d="M28.7278 19.5051C28.2357 19.0134 27.4371 19.0131 26.9448 19.5051L24.586 21.8626C23.1444 21.2573 20.7384 18.858 20.1289 17.4081L22.4878 15.0507C22.9801 14.5587 22.9801 13.7609 22.4878 13.2689L17.5848 8.36888C17.0929 7.8772 16.2942 7.87688 15.802 8.36888L13.1278 11.0416C11.8016 12.3669 11.6394 14.5728 12.671 17.2531C15.6429 24.9757 26.7806 33.0328 30.9565 28.8596L33.6308 26.1869C34.1231 25.6949 34.1231 24.8971 33.6308 24.4051L28.7278 19.5051ZM29.1735 27.0778C28.6197 27.6312 27.268 27.5878 25.6462 26.9643C21.4555 25.3536 16.6407 20.549 15.0241 16.3485C14.4002 14.7276 14.3567 13.3769 14.9105 12.8234L16.6933 11.0416L19.8133 14.1597L18.0306 15.9415C17.5553 16.4164 17.1821 17.3305 18.1033 18.9876C19.4549 21.419 24.0732 25.9386 26.0535 23.9597L27.8363 22.1779L30.9563 25.2961L29.1735 27.0778Z" fill="white"/>
<path d="M34.5005 0H11.5001C7.14057 0 3.59375 3.54682 3.59375 7.90637V30.9067C3.59375 35.2663 7.14057 38.8131 11.5001 38.8131H17.8738L21.7676 45.3027C22.3238 46.2296 23.6734 46.2352 24.2329 45.3027L28.1268 38.8131H34.5005C38.86 38.8131 42.4069 35.2663 42.4069 30.9067V7.90637C42.4069 3.54682 38.8601 0 34.5005 0ZM39.5318 30.9067C39.5318 33.6811 37.2747 35.9381 34.5005 35.9381H27.3129C26.8079 35.9381 26.34 36.203 26.0802 36.6361L23.0003 41.7692L19.9204 36.6361C19.6606 36.2031 19.1927 35.9381 18.6877 35.9381H11.5001C8.72589 35.9381 6.4688 33.6811 6.4688 30.9067V7.90637C6.4688 5.13204 8.72589 2.87504 11.5001 2.87504H34.5005C37.2747 2.87504 39.5318 5.13204 39.5318 7.90637V30.9067Z" fill="white"/>
</svg>
