<svg width="46" height="46" viewBox="0 0 46 46" fill="none" xmlns="http://www.w3.org/2000/svg">
<path d="M28.7278 19.5051C28.2357 19.0134 27.4371 19.0131 26.9448 19.5051L24.586 21.8626C23.1444 21.2573 20.7384 18.858 20.1289 17.4081L22.4878 15.0507C22.9801 14.5587 22.9801 13.7609 22.4878 13.2689L17.5848 8.36888C17.0929 7.8772 16.2942 7.87688 15.802 8.36888L13.1278 11.0416C11.8016 12.3669 11.6394 14.5728 12.671 17.2531C15.6429 24.9757 26.7806 33.0328 30.9565 28.8596L33.6308 26.1869C34.1231 25.6949 34.1231 24.8971 33.6308 24.4051L28.7278 19.5051ZM29.1735 27.0778C28.6197 27.6312 27.268 27.5878 25.6462 26.9643C21.4555 25.3536 16.6407 20.549 15.0241 16.3485C14.4002 14.7276 14.3567 13.3769 14.9105 12.8234L16.6933 11.0416L19.8133 14.1597L18.0306 15.9415C17.5553 16.4164 17.1821 17.3305 18.1033 18.9876C19.4549 21.419 24.0732 25.9386 26.0535 23.9597L27.8363 22.1779L30.9563 25.2961L29.1735 27.0778Z" fill="#1A56CB"/>
<path d="M34.5 0H11.4996C7.14008 0 3.59326 3.54682 3.59326 7.90637V30.9067C3.59326 35.2663 7.14008 38.8131 11.4996 38.8131H17.8733L21.7671 45.3027C22.3233 46.2296 23.6729 46.2352 24.2324 45.3027L28.1263 38.8131H34.5C38.8596 38.8131 42.4064 35.2663 42.4064 30.9067V7.90637C42.4064 3.54682 38.8596 0 34.5 0ZM39.5313 30.9067C39.5313 33.6811 37.2742 35.9381 34.5 35.9381H27.3124C26.8075 35.9381 26.3395 36.203 26.0797 36.6361L22.9998 41.7692L19.9199 36.6361C19.6601 36.2031 19.1922 35.9381 18.6872 35.9381H11.4996C8.7254 35.9381 6.46831 33.6811 6.46831 30.9067V7.90637C6.46831 5.13204 8.7254 2.87504 11.4996 2.87504H34.5C37.2742 2.87504 39.5313 5.13204 39.5313 7.90637V30.9067Z" fill="#1A56CB"/>
</svg>
