<svg width="46" height="46" viewBox="0 0 46 46" fill="none" xmlns="http://www.w3.org/2000/svg">
<path d="M5.87598 5.3935V35.3744C5.87598 38.3484 8.29547 40.7679 11.2695 40.7679H13.5605V46L18.5045 43.7752L23.4485 46V40.768H40.1241V0H11.2695C8.29547 0 5.87598 2.41949 5.87598 5.3935ZM20.7535 41.8317L18.5046 40.8198L16.2558 41.8317V38.0707H20.7535V41.8317ZM37.429 38.0727H23.4486V35.3754H13.5605V38.0727H11.2695C9.78157 38.0727 8.57111 36.8623 8.57111 35.3744C8.57111 33.8865 9.78166 32.676 11.2695 32.676H37.429V38.0727ZM37.429 29.9809H11.2695C10.2868 29.9809 9.36542 30.2463 8.57111 30.7074V5.3935C8.57111 3.9056 9.78166 2.69513 11.2695 2.69513H37.429V29.9809Z" fill="#1A56CB"/>
<path d="M31.9869 17.6856V14.9905H29.9479C29.7637 14.0389 29.3896 13.1542 28.8648 12.3792L30.3076 10.9364L28.4018 9.03059L26.959 10.4734C26.1838 9.94843 25.2992 9.57441 24.3477 9.39023V7.35132H21.6526V9.39023C20.701 9.5745 19.8163 9.94852 19.0413 10.4734L17.5985 9.03059L15.6927 10.9364L17.1355 12.3792C16.6105 13.1542 16.2365 14.0389 16.0523 14.9905H14.0134V17.6856H16.0523C16.2365 18.6371 16.6106 19.5218 17.1355 20.2969L15.6927 21.7397L17.5985 23.6455L19.0413 22.2027C19.8164 22.7276 20.701 23.1016 21.6526 23.2858V25.3247H24.3477V23.2858C25.2992 23.1016 26.1839 22.7275 26.959 22.2027L28.4018 23.6455L30.3076 21.7397L28.8648 20.2969C29.3897 19.5217 29.7638 18.6371 29.9479 17.6856H31.9869ZM23 20.721C20.5833 20.721 18.6171 18.7547 18.6171 16.338C18.6171 13.9213 20.5833 11.9551 23 11.9551C25.4168 11.9551 27.383 13.9213 27.383 16.338C27.383 18.7547 25.4168 20.721 23 20.721Z" fill="#1A56CB"/>
</svg>
