<svg width="46" height="46" viewBox="0 0 46 46" fill="none" xmlns="http://www.w3.org/2000/svg">
<path d="M41.957 16.6211H33.149C33.9547 15.0582 34.4102 13.2864 34.4102 11.4102C34.4102 5.11858 29.2916 0 23 0C16.7084 0 11.5898 5.11858 11.5898 11.4102C11.5898 13.2864 12.0453 15.0582 12.851 16.6211H4.04297C1.81368 16.6211 0 18.4348 0 20.6641V41.957C0 43.2927 0.651547 44.4788 1.65304 45.2153C1.67864 45.2357 1.70559 45.2535 1.73237 45.2717C2.38787 45.7301 3.18424 46 4.04297 46H41.957C42.8155 46 43.6117 45.7303 44.2671 45.2722C44.294 45.2538 44.3213 45.2358 44.3471 45.2153C45.3485 44.4787 46 43.2927 46 41.957V20.6641C46 18.4348 44.1863 16.6211 41.957 16.6211ZM2.69531 41.957V20.6641C2.69531 20.5796 2.70412 20.4972 2.71903 20.417L16.5913 31.2047L2.72802 42.2487C2.70717 42.1547 2.69531 42.0573 2.69531 41.957ZM18.7779 32.9089L20.5094 34.2631C21.2427 34.8365 22.1213 35.1232 23.0001 35.1232C23.8789 35.1232 24.7575 34.8365 25.4907 34.2631L27.2222 32.9089L40.2718 43.3047H5.72817L18.7779 32.9089ZM29.4087 31.2047L43.281 20.417C43.2959 20.4972 43.3047 20.5796 43.3047 20.6641V41.957C43.3047 42.0573 43.2928 42.1547 43.272 42.2487L29.4087 31.2047ZM23 2.69531C27.8054 2.69531 31.7148 6.60477 31.7148 11.4102C31.7148 16.2155 27.8054 20.125 23 20.125C18.1946 20.125 14.2852 16.2155 14.2852 11.4102C14.2852 6.60477 18.1946 2.69531 23 2.69531ZM23 22.8203C26.2251 22.8203 29.1416 21.475 31.2188 19.3164H40.3056L26.3996 30.1304L23.8302 32.1399C23.3414 32.5223 22.6586 32.5222 22.1698 32.1399L19.5974 30.1281L5.6943 19.3164H14.7811C16.8584 21.475 19.7749 22.8203 23 22.8203Z" fill="white"/>
<path d="M23 17.1602C23.7443 17.1602 24.3477 16.5568 24.3477 15.8125V11.5C24.3477 10.7557 23.7443 10.1523 23 10.1523C22.2557 10.1523 21.6523 10.7557 21.6523 11.5V15.8125C21.6523 16.5568 22.2557 17.1602 23 17.1602Z" fill="white"/>
<path d="M23 8.53516C23.7443 8.53516 24.3477 7.93179 24.3477 7.1875C24.3477 6.44321 23.7443 5.83984 23 5.83984C22.2557 5.83984 21.6523 6.44321 21.6523 7.1875C21.6523 7.93179 22.2557 8.53516 23 8.53516Z" fill="white"/>
</svg>
