<svg width="46" height="46" viewBox="0 0 46 46" fill="none" xmlns="http://www.w3.org/2000/svg">
<g clip-path="url(#clip0)">
<path d="M41.7654 5.7739H34.4521V1.34766C34.4521 0.603391 33.8487 0 33.1045 0H1.34766C0.603391 0 0 0.603391 0 1.34766V38.8784C0 42.8052 3.19475 46 7.12164 46C7.12164 46 29.5091 46.0001 38.8784 46.0001C42.8115 46 46 42.8115 46 38.8784V10.0085C46 7.67355 44.1003 5.7739 41.7654 5.7739ZM37.818 8.46921C37.6293 8.95329 37.5308 9.4733 37.5308 10.0086V14.4349H34.4521V8.4693H37.818V8.46921ZM7.12164 43.3046C4.68095 43.3046 2.69531 41.319 2.69531 38.8784V2.69531H31.7568V38.8784C31.7568 40.5517 32.3354 42.0891 33.3015 43.3046H7.12164ZM43.3047 38.8784C43.3047 41.323 41.323 43.3047 38.8784 43.3047C36.9038 43.3047 35.2318 42.0115 34.6616 40.226H38.8784C39.6226 40.226 40.226 39.6226 40.226 38.8784C40.226 38.1341 39.6226 37.5307 38.8784 37.5307H34.452V34.452H38.8784C39.6226 34.452 40.226 33.8486 40.226 33.1044C40.226 32.3601 39.6226 31.7567 38.8784 31.7567H34.452V28.678H38.8784C39.6226 28.678 40.226 28.0746 40.226 27.3304C40.226 26.5861 39.6226 25.9827 38.8784 25.9827H34.452V22.904H38.8784C39.6226 22.904 40.226 22.3007 40.226 21.5564C40.226 20.8121 39.6226 20.2087 38.8784 20.2087H34.452V17.1301H38.8784C39.6226 17.1301 40.226 16.5267 40.226 15.7824V10.0086C40.226 9.16775 40.9059 8.46921 41.7653 8.46921C42.6141 8.46921 43.3046 9.15984 43.3046 10.0086V38.8784H43.3047Z" fill="white"/>
<path d="M27.3304 5.77368H7.12158C6.37732 5.77368 5.77393 6.37707 5.77393 7.12134C5.77393 7.8656 6.37732 8.46899 7.12158 8.46899H27.3304C28.0747 8.46899 28.6781 7.8656 28.6781 7.12134C28.6781 6.37707 28.0747 5.77368 27.3304 5.77368Z" fill="white"/>
<path d="M27.3307 25.9827H20.1133C19.369 25.9827 18.7656 26.5861 18.7656 27.3303C18.7656 28.0746 19.369 28.678 20.1133 28.678H27.3307C28.075 28.678 28.6784 28.0746 28.6784 27.3303C28.6784 26.5861 28.075 25.9827 27.3307 25.9827Z" fill="white"/>
<path d="M14.339 25.9827H7.12158C6.37732 25.9827 5.77393 26.5861 5.77393 27.3303C5.77393 28.0746 6.37732 28.678 7.12158 28.678H14.339C15.0833 28.678 15.6867 28.0746 15.6867 27.3303C15.6867 26.5861 15.0833 25.9827 14.339 25.9827Z" fill="white"/>
<path d="M27.3307 37.5308H20.1133C19.369 37.5308 18.7656 38.1342 18.7656 38.8784C18.7656 39.6227 19.369 40.2261 20.1133 40.2261H27.3307C28.075 40.2261 28.6784 39.6227 28.6784 38.8784C28.6784 38.1342 28.075 37.5308 27.3307 37.5308Z" fill="white"/>
<path d="M14.339 37.5308H7.12158C6.37732 37.5308 5.77393 38.1342 5.77393 38.8784C5.77393 39.6227 6.37732 40.2261 7.12158 40.2261H14.339C15.0833 40.2261 15.6867 39.6227 15.6867 38.8784C15.6867 38.1342 15.0833 37.5308 14.339 37.5308Z" fill="white"/>
<path d="M27.3307 31.7568H20.1133C19.369 31.7568 18.7656 32.3602 18.7656 33.1045C18.7656 33.8488 19.369 34.4522 20.1133 34.4522H27.3307C28.075 34.4522 28.6784 33.8488 28.6784 33.1045C28.6784 32.3602 28.075 31.7568 27.3307 31.7568Z" fill="white"/>
<path d="M14.339 31.7568H7.12158C6.37732 31.7568 5.77393 32.3602 5.77393 33.1045C5.77393 33.8488 6.37732 34.4522 7.12158 34.4522H14.339C15.0833 34.4522 15.6867 33.8488 15.6867 33.1045C15.6867 32.3602 15.0833 31.7568 14.339 31.7568Z" fill="white"/>
<path d="M27.3304 11.5479H7.12158C6.37732 11.5479 5.77393 12.1512 5.77393 12.8955V21.5564C5.77393 22.3007 6.37732 22.9041 7.12158 22.9041H27.3304C28.0747 22.9041 28.6781 22.3007 28.6781 21.5564V12.8955C28.6781 12.1512 28.0747 11.5479 27.3304 11.5479ZM25.9827 20.2089H8.46924V14.2433H25.9827V20.2089Z" fill="white"/>
</g>
<defs>
<clipPath id="clip0">
<rect width="46" height="46" fill="white"/>
</clipPath>
</defs>
</svg>
