<svg width="16" height="16" viewBox="0 0 16 16" fill="none" xmlns="http://www.w3.org/2000/svg">
<mask id="mask0" mask-type="alpha" maskUnits="userSpaceOnUse" x="1" y="1" width="15" height="15">
<path fill-rule="evenodd" clip-rule="evenodd" d="M10.2222 4.03263C8.51263 2.32308 5.74217 2.32308 4.03263 4.03263C2.32308 5.74217 2.32308 8.51263 4.03263 10.2222C5.74217 11.9317 8.51263 11.9317 10.2222 10.2222C11.9317 8.51263 11.9317 5.74217 10.2222 4.03263ZM14.774 14.774C14.4317 15.1153 13.8776 15.1153 13.5354 14.774L10.7789 12.0166C8.3787 13.8111 4.97537 13.6413 2.79489 11.4599C0.401703 9.0676 0.401703 5.18808 2.79489 2.79489C5.1872 0.401703 9.0676 0.401703 11.4599 2.79489C13.6413 4.97537 13.8111 8.3787 12.0166 10.7789L14.774 13.5362C15.1153 13.8776 15.1153 14.4317 14.774 14.774Z" fill="white"/>
</mask>
<g mask="url(#mask0)">
<rect width="16" height="16" fill="#0F2765"/>
</g>
</svg>
