<svg width="46" height="46" viewBox="0 0 46 46" fill="none" xmlns="http://www.w3.org/2000/svg">
<g clip-path="url(#clip0)">
<path d="M24.4434 46H21.5565C19.2215 46 17.3218 44.1003 17.3218 41.7654V40.7887C16.3291 40.4716 15.3646 40.0712 14.4381 39.5917L13.7459 40.2839C12.0695 41.9623 9.38418 41.9131 7.75648 40.2832L5.71604 38.2429C4.08546 36.6141 4.03857 33.9297 5.71658 32.2535L6.4082 31.5618C5.9287 30.6353 5.52845 29.671 5.21121 28.6781H4.23461C1.89975 28.6781 0 26.7785 0 24.4435V21.5565C0 19.2215 1.89975 17.3219 4.2347 17.3219H5.2113C5.52854 16.3291 5.92879 15.3647 6.40829 14.4382L5.71613 13.7461C4.03911 12.0709 4.08538 9.38616 5.71667 7.75666L7.75729 5.71613C9.38876 4.08241 12.0735 4.04162 13.7466 5.71667L14.4382 6.4082C15.3647 5.92879 16.3292 5.52845 17.3219 5.21121V4.23461C17.3219 1.89966 19.2215 0 21.5566 0H24.4435C26.7785 0 28.6781 1.89966 28.6781 4.23461V5.2113C29.6708 5.52845 30.6353 5.92879 31.5618 6.40829L32.254 5.71613C33.9304 4.03767 36.6157 4.0869 38.2434 5.71676L40.2839 7.75711C41.9144 9.38589 41.9613 12.0703 40.2833 13.7465L39.5917 14.4382C40.0712 15.3647 40.4715 16.329 40.7887 17.3219H41.7653C44.1003 17.3219 46 19.2215 46 21.5565V24.4435C46 26.7785 44.1003 28.6781 41.7653 28.6781H40.7887C40.4715 29.6709 40.0712 30.6353 39.5917 31.5618L40.2839 32.254C41.9609 33.9292 41.9146 36.6139 40.2833 38.2434L38.2427 40.284C36.6112 41.9177 33.9265 41.9585 32.2534 40.2834L31.5618 39.5919C30.6353 40.0713 29.6708 40.4716 28.6781 40.7889V41.7656C28.6781 44.1003 26.7785 46 24.4434 46ZM14.8886 36.7614C16.1758 37.5226 17.5612 38.0977 19.0063 38.4706C19.6014 38.6242 20.0172 39.1609 20.0172 39.7755V41.7654C20.0172 42.6141 20.7078 43.3047 21.5566 43.3047H24.4435C25.2923 43.3047 25.9829 42.6141 25.9829 41.7654V39.7755C25.9829 39.1609 26.3987 38.6242 26.9938 38.4706C28.4389 38.0977 29.8243 37.5226 31.1115 36.7614C31.6411 36.4482 32.3154 36.5333 32.7505 36.9685L34.1599 38.378C34.7676 38.9864 35.7435 38.9723 36.3363 38.3786L38.3782 36.3369C38.9695 35.7462 38.9893 34.7702 38.3787 34.1604L36.9686 32.7503C36.5336 32.3153 36.4484 31.6409 36.7615 31.1114C37.5228 29.8243 38.0978 28.4389 38.4707 26.9937C38.6244 26.3986 39.1611 25.9829 39.7756 25.9829H41.7654C42.6141 25.9829 43.3048 25.2924 43.3048 24.4436V21.5566C43.3048 20.7078 42.6141 20.0173 41.7654 20.0173H39.7756C39.161 20.0173 38.6244 19.6015 38.4707 19.0064C38.0978 17.5613 37.5227 16.1759 36.7615 14.8888C36.4484 14.3593 36.5336 13.6849 36.9686 13.2499L38.3782 11.8403C38.9875 11.2317 38.9716 10.256 38.3787 9.66386L36.337 7.62216C35.7452 7.02955 34.7692 7.01222 34.1606 7.62162L32.7506 9.03172C32.3155 9.46684 31.641 9.55201 31.1115 9.23881C29.8244 8.47757 28.439 7.90248 26.9939 7.52954C26.3988 7.37599 25.983 6.83927 25.983 6.22464V4.23461C25.983 3.38585 25.2924 2.69531 24.4436 2.69531H21.5567C20.7079 2.69531 20.0173 3.38585 20.0173 4.23461V6.22446C20.0173 6.83909 19.6015 7.37581 19.0064 7.52936C17.5613 7.9023 16.1759 8.47739 14.8887 9.23863C14.359 9.55174 13.6847 9.46657 13.2497 9.03154L11.8402 7.62198C11.2325 7.01356 10.2566 7.02767 9.66386 7.62136L7.62198 9.66314C7.03063 10.2538 7.01087 11.2297 7.62145 11.8396L9.03154 13.2497C9.46657 13.6847 9.55174 14.3591 9.23863 14.8886C8.47739 16.1757 7.90239 17.5611 7.52945 19.0063C7.37581 19.6014 6.83909 20.0171 6.22455 20.0171H4.2347C3.38594 20.0172 2.69531 20.7077 2.69531 21.5565V24.4435C2.69531 25.2923 3.38594 25.9828 4.2347 25.9828H6.22446C6.83909 25.9828 7.37572 26.3986 7.52936 26.9936C7.9023 28.4388 8.47739 29.8242 9.23854 31.1113C9.55165 31.6408 9.46648 32.3152 9.03145 32.7502L7.62189 34.1598C7.01257 34.7684 7.02848 35.7441 7.62136 36.3362L9.66305 38.3779C10.2549 38.9705 11.2309 38.9879 11.8395 38.3785L13.2495 36.9684C13.5701 36.6479 14.237 36.3759 14.8886 36.7614Z" fill="white"/>
<path d="M22.9998 33.0084C17.481 33.0084 12.9912 28.5185 12.9912 22.9998C12.9912 17.4811 17.481 12.9912 22.9998 12.9912C28.5186 12.9912 33.0084 17.4811 33.0084 22.9998C33.0084 28.5185 28.5186 33.0084 22.9998 33.0084ZM22.9998 15.6865C18.9672 15.6865 15.6865 18.9673 15.6865 22.9998C15.6865 27.0323 18.9673 30.3131 22.9998 30.3131C27.0323 30.3131 30.3131 27.0323 30.3131 22.9998C30.3131 18.9673 27.0324 15.6865 22.9998 15.6865Z" fill="white"/>
</g>
<defs>
<clipPath id="clip0">
<rect width="46" height="46" fill="white"/>
</clipPath>
</defs>
</svg>
