<svg width="46" height="46" viewBox="0 0 46 46" fill="none" xmlns="http://www.w3.org/2000/svg">
<path d="M24.7969 12.3984V22.2557L31.3383 28.7972C32.0401 29.4989 32.0401 30.6366 31.3383 31.3383C30.6365 32.0401 29.4988 32.04 28.7972 31.3383L21.7294 24.2706C21.3924 23.9337 21.2031 23.4765 21.2031 23V12.3984C21.2031 11.406 22.0076 10.6016 23 10.6016C23.9924 10.6016 24.7969 11.406 24.7969 12.3984ZM30.0677 0H15.9323C12.1687 0 8.45573 1.32268 5.48487 3.90623V1.79688C5.48487 0.804461 4.68041 0 3.688 0C2.69558 0 1.89112 0.804461 1.89112 1.79688V8.86461C1.89112 9.85703 2.7025 10.6615 3.688 10.6615H10.7557C11.7481 10.6615 12.5526 9.85703 12.5526 8.86461C12.5526 7.8722 11.7481 7.06774 10.7557 7.06774H7.35668C9.63098 4.8751 12.701 3.59375 15.9323 3.59375H30.0676C36.8712 3.59375 42.4062 9.12875 42.4062 15.9323V30.0676C42.4062 36.8712 36.8712 42.4062 30.0677 42.4062H15.9323C9.12875 42.4062 3.59375 36.8712 3.59375 30.0677V23C3.59375 22.0076 2.78929 21.2031 1.79688 21.2031C0.804461 21.2031 0 22.0076 0 23V30.0677C0 38.8528 7.14716 46 15.9323 46H30.0676C38.8528 46 46 38.8528 46 30.0677V15.9323C46 7.14716 38.8528 0 30.0677 0V0Z" fill="white"/>
</svg>
