<svg width="46" height="46" viewBox="0 0 46 46" fill="none" xmlns="http://www.w3.org/2000/svg">
<path d="M5.87598 5.3935V35.3744C5.87598 38.3484 8.29547 40.7679 11.2695 40.7679H13.5605V46L18.5045 43.7752L23.4485 46V40.768H40.1241V0H11.2695C8.29547 0 5.87598 2.41949 5.87598 5.3935ZM20.7535 41.8317L18.5046 40.8198L16.2558 41.8317V38.0707H20.7535V41.8317ZM37.429 38.0727H23.4486V35.3754H13.5605V38.0727H11.2695C9.78157 38.0727 8.57111 36.8623 8.57111 35.3744C8.57111 33.8865 9.78166 32.676 11.2695 32.676H37.429V38.0727ZM37.429 29.9809H11.2695C10.2868 29.9809 9.36542 30.2463 8.57111 30.7074V5.3935C8.57111 3.9056 9.78166 2.69513 11.2695 2.69513H37.429V29.9809Z" fill="white"/>
<path d="M31.9871 17.6856V14.9905H29.9482C29.7639 14.0389 29.3899 13.1542 28.865 12.3792L30.3078 10.9364L28.4021 9.03059L26.9593 10.4734C26.1841 9.94843 25.2995 9.57441 24.3479 9.39023V7.35132H21.6528V9.39023C20.7013 9.5745 19.8166 9.94852 19.0415 10.4734L17.5987 9.03059L15.6929 10.9364L17.1357 12.3792C16.6108 13.1542 16.2368 14.0389 16.0526 14.9905H14.0137V17.6856H16.0526C16.2368 18.6371 16.6109 19.5218 17.1357 20.2969L15.6929 21.7397L17.5987 23.6455L19.0415 22.2027C19.8167 22.7276 20.7013 23.1016 21.6528 23.2858V25.3247H24.3479V23.2858C25.2995 23.1016 26.1842 22.7275 26.9593 22.2027L28.4021 23.6455L30.3078 21.7397L28.865 20.2969C29.39 19.5217 29.764 18.6371 29.9482 17.6856H31.9871ZM23.0003 20.721C20.5836 20.721 18.6174 18.7547 18.6174 16.338C18.6174 13.9213 20.5836 11.9551 23.0003 11.9551C25.417 11.9551 27.3832 13.9213 27.3832 16.338C27.3832 18.7547 25.417 20.721 23.0003 20.721Z" fill="white"/>
</svg>
